<svg width="19" height="17" viewBox="0 0 19 17" fill="none" xmlns="http://www.w3.org/2000/svg">
<path d="M14.5469 9.39067C14.6256 9.39067 14.7011 9.35939 14.7568 9.30372C14.8125 9.24804 14.8438 9.17253 14.8438 9.0938V8.50005C14.8438 8.42131 14.8125 8.3458 14.7568 8.29012C14.7011 8.23445 14.6256 8.20317 14.5469 8.20317C14.4681 8.20317 14.3926 8.23445 14.337 8.29012C14.2813 8.3458 14.25 8.42131 14.25 8.50005V9.0938C14.25 9.17253 14.2813 9.24804 14.337 9.30372C14.3926 9.35939 14.4681 9.39067 14.5469 9.39067Z" fill="#2D2D2D"/>
<path d="M14.5469 11.1719C14.4681 11.1719 14.3926 11.2032 14.337 11.2589C14.2813 11.3145 14.25 11.3901 14.25 11.4688V12.0625C14.25 12.1413 14.2813 12.2168 14.337 12.2725C14.3926 12.3281 14.4681 12.3594 14.5469 12.3594C14.6256 12.3594 14.7011 12.3281 14.7568 12.2725C14.8125 12.2168 14.8438 12.1413 14.8438 12.0625V11.4688C14.8438 11.3901 14.8125 11.3145 14.7568 11.2589C14.7011 11.2032 14.6256 11.1719 14.5469 11.1719Z" fill="#2D2D2D"/>
<path d="M13.5694 16.4286C13.6891 16.4861 13.8203 16.5158 13.9531 16.5157H17.5156C17.7518 16.5154 17.9781 16.4215 18.1451 16.2545C18.3121 16.0876 18.406 15.8612 18.4062 15.625V7.9063C18.406 7.67017 18.3121 7.44379 18.1451 7.27682C17.9781 7.10985 17.7518 7.01594 17.5156 7.01567H13.9531C13.717 7.01594 13.4906 7.10985 13.3237 7.27682C13.1567 7.44379 13.0628 7.67017 13.0625 7.9063V9.39067H12.4688V8.79692C12.4688 8.71818 12.4375 8.64267 12.3818 8.587C12.3261 8.53132 12.2506 8.50005 12.1719 8.50005H10.3906C10.3119 8.50005 10.2364 8.53132 10.1807 8.587C10.125 8.64267 10.0938 8.71818 10.0938 8.79692V9.39067H9.5V8.79692C9.50005 8.75787 9.49237 8.7192 9.4774 8.68313C9.46243 8.64706 9.44047 8.61431 9.41279 8.58677C9.47024 8.46705 9.50004 8.33596 9.5 8.20317H10.0938C10.1725 8.20317 10.248 8.17189 10.3037 8.11622C10.3593 8.06054 10.3906 7.98503 10.3906 7.9063C10.3906 7.82756 10.3593 7.75205 10.3037 7.69637C10.248 7.6407 10.1725 7.60942 10.0938 7.60942H9.5C9.5 7.53068 9.46872 7.45517 9.41305 7.3995C9.35737 7.34382 9.28186 7.31255 9.20312 7.31255H7.42188C7.34314 7.31255 7.26763 7.34382 7.21195 7.3995C7.15628 7.45517 7.125 7.53068 7.125 7.60942V8.20254C7.12486 8.33554 7.15466 8.46686 7.21221 8.58677C7.18453 8.61431 7.16257 8.64706 7.1476 8.68313C7.13263 8.7192 7.12495 8.75787 7.125 8.79692V9.39067H5.64062V8.79692H5.9375C6.01624 8.79692 6.09175 8.76564 6.14742 8.70997C6.2031 8.65429 6.23438 8.57878 6.23438 8.50005C6.23438 8.42131 6.2031 8.3458 6.14742 8.29012C6.09175 8.23445 6.01624 8.20317 5.9375 8.20317H5.64062V7.9063C5.64062 7.67009 5.54679 7.44355 5.37977 7.27653C5.21274 7.1095 4.98621 7.01567 4.75 7.01567C4.51379 7.01567 4.28726 7.1095 4.12023 7.27653C3.95321 7.44355 3.85938 7.67009 3.85938 7.9063V8.50005C3.85938 8.57878 3.89065 8.65429 3.94633 8.70997C4.002 8.76564 4.07751 8.79692 4.15625 8.79692C4.23499 8.79692 4.3105 8.76564 4.36617 8.70997C4.42185 8.65429 4.45312 8.57878 4.45312 8.50005V7.9063C4.45312 7.82756 4.4844 7.75205 4.54008 7.69637C4.59575 7.6407 4.67126 7.60942 4.75 7.60942C4.82874 7.60942 4.90425 7.6407 4.95992 7.69637C5.0156 7.75205 5.04688 7.82756 5.04688 7.9063V9.39067H2.67188V8.79692C2.67188 8.56071 2.57804 8.33418 2.41102 8.16715C2.24399 8.00013 2.01746 7.9063 1.78125 7.9063C1.54504 7.9063 1.31851 8.00013 1.15148 8.16715C0.984458 8.33418 0.890625 8.56071 0.890625 8.79692V9.39067C0.811889 9.39067 0.736378 9.42195 0.680703 9.47762C0.625028 9.5333 0.59375 9.60881 0.59375 9.68755V16.2188C0.59375 16.2975 0.625028 16.373 0.680703 16.4287C0.736378 16.4844 0.811889 16.5157 0.890625 16.5157H13.3594C13.3984 16.5157 13.437 16.5081 13.4731 16.4931C13.5091 16.4782 13.5418 16.4563 13.5694 16.4286ZM17.5156 15.9219H13.9531C13.8744 15.9218 13.799 15.8905 13.7433 15.8349C13.6876 15.7792 13.6563 15.7038 13.6562 15.625V10.5782H17.8125V15.625C17.8124 15.7038 17.7811 15.7792 17.7255 15.8349C17.6698 15.8905 17.5943 15.9218 17.5156 15.9219ZM13.6562 7.9063C13.6563 7.82759 13.6876 7.75213 13.7433 7.69647C13.799 7.64082 13.8744 7.60951 13.9531 7.60942H17.5156C17.5943 7.60951 17.6698 7.64082 17.7255 7.69647C17.7811 7.75213 17.8124 7.82759 17.8125 7.9063V9.98442H13.6562V7.9063ZM11.875 9.98442V11.1719H7.71875V9.98442H11.875ZM7.71875 11.7657H11.875V14.7344H7.71875V11.7657ZM10.6875 9.0938H11.875V9.39067H10.6875V9.0938ZM7.71875 9.39067V9.0938H8.90625V9.39067H7.71875ZM7.71875 7.9063H8.90625V8.20254C8.90616 8.28142 8.87479 8.35704 8.81901 8.41281C8.76324 8.46858 8.68762 8.49996 8.60874 8.50005H8.01626C7.93738 8.49996 7.86176 8.46858 7.80598 8.41281C7.75021 8.35704 7.71884 8.28142 7.71875 8.20254V7.9063ZM1.48438 8.79692C1.48438 8.71818 1.51565 8.64267 1.57133 8.587C1.627 8.53132 1.70251 8.50005 1.78125 8.50005C1.85999 8.50005 1.9355 8.53132 1.99117 8.587C2.04685 8.64267 2.07812 8.71818 2.07812 8.79692V9.39067H1.48438V8.79692ZM13.0625 15.9219H1.1875V9.98442H7.125V15.0313C7.125 15.11 7.15628 15.1855 7.21195 15.2412C7.26763 15.2969 7.34314 15.3282 7.42188 15.3282H12.1719C12.2506 15.3282 12.3261 15.2969 12.3818 15.2412C12.4375 15.1855 12.4688 15.11 12.4688 15.0313V9.98442H13.0625V15.9219Z" fill="#2D2D2D"/>
<path d="M10.3906 12.3594H9.20312C9.12439 12.3594 9.04888 12.3907 8.9932 12.4464C8.93753 12.502 8.90625 12.5776 8.90625 12.6563C8.90625 12.735 8.93753 12.8105 8.9932 12.8662C9.04888 12.9219 9.12439 12.9532 9.20312 12.9532H10.3906C10.4694 12.9532 10.5449 12.9219 10.6005 12.8662C10.6562 12.8105 10.6875 12.735 10.6875 12.6563C10.6875 12.5776 10.6562 12.502 10.6005 12.4464C10.5449 12.3907 10.4694 12.3594 10.3906 12.3594Z" fill="#2D2D2D"/>
<path d="M6.23438 12.9532H2.07812C1.99939 12.9532 1.92388 12.9844 1.8682 13.0401C1.81253 13.0958 1.78125 13.1713 1.78125 13.25V15.0313C1.78125 15.11 1.81253 15.1855 1.8682 15.2412C1.92388 15.2969 1.99939 15.3282 2.07812 15.3282H6.23438C6.31311 15.3282 6.38862 15.2969 6.4443 15.2412C6.49997 15.1855 6.53125 15.11 6.53125 15.0313V13.25C6.53125 13.1713 6.49997 13.0958 6.4443 13.0401C6.38862 12.9844 6.31311 12.9532 6.23438 12.9532ZM5.9375 14.7344H2.375V13.5469H5.9375V14.7344Z" fill="#2D2D2D"/>
<path d="M6.23438 10.5782H2.07812C1.99939 10.5782 1.92388 10.6094 1.8682 10.6651C1.81253 10.7208 1.78125 10.7963 1.78125 10.875V12.0625C1.78125 12.1413 1.81253 12.2168 1.8682 12.2725C1.92388 12.3281 1.99939 12.3594 2.07812 12.3594H6.23438C6.31311 12.3594 6.38862 12.3281 6.4443 12.2725C6.49997 12.2168 6.53125 12.1413 6.53125 12.0625V10.875C6.53125 10.7963 6.49997 10.7208 6.4443 10.6651C6.38862 10.6094 6.31311 10.5782 6.23438 10.5782ZM5.9375 11.7657H2.375V11.1719H5.9375V11.7657Z" fill="#2D2D2D"/>
<path d="M11.875 2.85942C11.9537 2.85942 12.0292 2.82814 12.0849 2.77247C12.1406 2.71679 12.1719 2.64128 12.1719 2.56255V1.9688C12.1719 1.89006 12.1406 1.81455 12.0849 1.75887C12.0292 1.7032 11.9537 1.67192 11.875 1.67192C11.7963 1.67192 11.7208 1.7032 11.6651 1.75887C11.6094 1.81455 11.5781 1.89006 11.5781 1.9688V2.56255C11.5781 2.64128 11.6094 2.71679 11.6651 2.77247C11.7208 2.82814 11.7963 2.85942 11.875 2.85942Z" fill="#2D2D2D"/>
<path d="M15.4375 2.85942C15.5162 2.85942 15.5917 2.82814 15.6474 2.77247C15.7031 2.71679 15.7344 2.64128 15.7344 2.56255V1.9688C15.7344 1.89006 15.7031 1.81455 15.6474 1.75887C15.5917 1.7032 15.5162 1.67192 15.4375 1.67192C15.3588 1.67192 15.2833 1.7032 15.2276 1.75887C15.1719 1.81455 15.1406 1.89006 15.1406 1.9688V2.56255C15.1406 2.64128 15.1719 2.71679 15.2276 2.77247C15.2833 2.82814 15.3588 2.85942 15.4375 2.85942Z" fill="#2D2D2D"/>
<path d="M0.890625 2.26567H3.5625V3.45317H3.26562C3.2105 3.45317 3.15646 3.46853 3.10956 3.49751C3.06266 3.52649 3.02476 3.56796 3.00011 3.61727L2.10948 5.39852C2.08685 5.44378 2.07616 5.49407 2.07843 5.54463C2.08071 5.59518 2.09586 5.64432 2.12247 5.68736C2.14907 5.73041 2.18624 5.76594 2.23043 5.79059C2.27463 5.81523 2.3244 5.82817 2.375 5.82817H5.34375C5.39435 5.82817 5.44412 5.81523 5.48832 5.79059C5.53252 5.76594 5.56968 5.73041 5.59628 5.68736C5.62289 5.64432 5.63804 5.59518 5.64032 5.54463C5.64259 5.49407 5.6319 5.44378 5.60927 5.39852L4.71864 3.61727C4.69399 3.56796 4.65609 3.52649 4.60919 3.49751C4.56229 3.46853 4.50825 3.45317 4.45312 3.45317H4.15625V2.26567H8.01562V3.45317H7.71875C7.66362 3.45317 7.60958 3.46853 7.56268 3.49751C7.51579 3.52649 7.47789 3.56796 7.45323 3.61727L6.56261 5.39852C6.53997 5.44378 6.52929 5.49407 6.53156 5.54463C6.53383 5.59518 6.54899 5.64432 6.57559 5.68736C6.6022 5.73041 6.63936 5.76594 6.68356 5.79059C6.72776 5.81523 6.77752 5.82817 6.82812 5.82817H9.79688C9.84748 5.82817 9.89724 5.81523 9.94144 5.79059C9.98564 5.76594 10.0228 5.73041 10.0494 5.68736C10.076 5.64432 10.0912 5.59518 10.0934 5.54463C10.0957 5.49407 10.085 5.44378 10.0624 5.39852L9.17177 3.61727C9.14711 3.56796 9.10921 3.52649 9.06231 3.49751C9.01542 3.46853 8.96138 3.45317 8.90625 3.45317H8.60938V2.26567H10.6875V4.64067C10.6875 4.71941 10.7188 4.79492 10.7745 4.85059C10.8301 4.90627 10.9056 4.93755 10.9844 4.93755H18.1094C18.1881 4.93755 18.2636 4.90627 18.3193 4.85059C18.375 4.79492 18.4062 4.71941 18.4062 4.64067V0.781296C18.4062 0.70256 18.375 0.627048 18.3193 0.571374C18.2636 0.515699 18.1881 0.484421 18.1094 0.484421H0.890625C0.811889 0.484421 0.736378 0.515699 0.680703 0.571374C0.625028 0.627048 0.59375 0.70256 0.59375 0.781296V1.9688C0.59375 2.04753 0.625028 2.12304 0.680703 2.17872C0.736378 2.23439 0.811889 2.26567 0.890625 2.26567ZM4.86341 5.23442H2.85534L3.44909 4.04692H4.26966L4.86341 5.23442ZM9.31653 5.23442H7.30847L7.90222 4.04692H8.72278L9.31653 5.23442ZM11.2812 1.07817H13.9531V3.45317H11.2812V1.07817ZM17.8125 4.3438H11.2812V4.04692H17.8125V4.3438ZM17.8125 3.45317H14.5469V1.07817H17.8125V3.45317ZM1.1875 1.07817H10.6875V1.67192H1.1875V1.07817Z" fill="#2D2D2D"/>
<path d="M8.60938 10.875C8.77333 10.875 8.90625 10.7421 8.90625 10.5782C8.90625 10.4142 8.77333 10.2813 8.60938 10.2813C8.44542 10.2813 8.3125 10.4142 8.3125 10.5782C8.3125 10.7421 8.44542 10.875 8.60938 10.875Z" fill="#2D2D2D"/>
<path d="M9.79688 10.875C9.96083 10.875 10.0938 10.7421 10.0938 10.5782C10.0938 10.4142 9.96083 10.2813 9.79688 10.2813C9.63292 10.2813 9.5 10.4142 9.5 10.5782C9.5 10.7421 9.63292 10.875 9.79688 10.875Z" fill="#2D2D2D"/>
<path d="M10.9844 10.875C11.1483 10.875 11.2812 10.7421 11.2812 10.5782C11.2812 10.4142 11.1483 10.2813 10.9844 10.2813C10.8204 10.2813 10.6875 10.4142 10.6875 10.5782C10.6875 10.7421 10.8204 10.875 10.9844 10.875Z" fill="#2D2D2D"/>
</svg>
