<svg width="63" height="77" viewBox="0 0 63 77" fill="none" xmlns="http://www.w3.org/2000/svg">
<path fill-rule="evenodd" clip-rule="evenodd" d="M32.129 47.9442H26.4247V57.2245H0V28.5925L31.496 0L63 28.5925V57.2166H39.0121L32.129 47.9442ZM53.7276 72.1379C53.7276 74.8041 55.7767 76.2519 58.3243 76.2519C59.2996 76.2747 60.2714 76.1275 61.1962 75.8168V73.7835C60.4845 74.0441 59.7307 74.1702 58.973 74.1554C57.8575 74.1554 56.8052 73.8152 56.5046 72.9607H61.568C62.1139 70.5872 61.117 68.0239 57.7942 68.0239C57.2519 68.0082 56.7121 68.1043 56.2085 68.3062C55.7049 68.508 55.2482 68.8113 54.8668 69.1971C54.4854 69.583 54.1875 70.0432 53.9915 70.5491C53.7955 71.055 53.7057 71.5958 53.7276 72.1379ZM59.0679 71.3467H56.4729C56.4714 71.1681 56.5069 70.9911 56.577 70.8268C56.647 70.6625 56.7503 70.5144 56.8803 70.3919C57.0103 70.2693 57.1642 70.1749 57.3323 70.1146C57.5004 70.0543 57.6792 70.0293 57.8575 70.0413C58.0284 70.0272 58.2003 70.0521 58.3601 70.1142C58.52 70.1762 58.6636 70.2738 58.7802 70.3996C58.8969 70.5253 58.9833 70.6759 59.0332 70.84C59.083 71.0041 59.0949 71.1774 59.0679 71.3467ZM47.9205 66.1251V68.3008H46.6784V70.5556H47.9047V73.5778C47.9047 75.6269 49.305 76.2361 50.8082 76.2361C51.5234 76.2613 52.2377 76.165 52.9206 75.9513V73.7993C52.5221 73.9405 52.1012 74.0075 51.6785 73.9971C50.9823 73.9971 50.6658 73.6569 50.6658 73.0477V70.5239H52.7624V68.2691H50.6342V65.4447L47.8889 66.0934L47.9205 66.1251ZM42.9204 68.3008V73.2693C42.764 73.4732 42.5645 73.6399 42.336 73.7576C42.1076 73.8752 41.8559 73.9408 41.5992 73.9497C41.4381 73.9636 41.2759 73.9415 41.1244 73.8852C40.9729 73.8288 40.8358 73.7394 40.723 73.6236C40.6102 73.5078 40.5246 73.3684 40.4722 73.2154C40.4199 73.0625 40.4021 72.8998 40.4203 72.7392V68.2691H37.675V73.0794C37.636 73.4993 37.6889 73.9226 37.83 74.32C37.9712 74.7173 38.1972 75.0792 38.4923 75.3804C38.7875 75.6815 39.1447 75.9148 39.5391 76.064C39.9336 76.2131 40.3558 76.2746 40.7763 76.244C41.2411 76.2488 41.7016 76.1547 42.1272 75.9678C42.5528 75.7809 42.9338 75.5056 43.2448 75.1601V76.0462H45.6578V68.2691L42.9204 68.3008ZM33.3553 64.2659V76.0146H36.0927V64.2342L33.3553 64.2659ZM23.3708 72.1775C23.3708 74.9228 25.4041 76.2915 27.7222 76.2915C30.0403 76.2915 32.0815 74.9228 32.0815 72.1775C32.0815 69.4321 30.064 68.0397 27.6906 68.0397C25.3171 68.0397 23.3392 69.4163 23.3392 72.1537L23.3708 72.1775ZM29.2571 72.1775C29.2133 72.4658 29.0883 72.7357 28.8967 72.9556C28.7051 73.1755 28.4548 73.3362 28.1752 73.419C27.8955 73.5017 27.5981 73.5031 27.3177 73.423C27.0373 73.3428 26.7855 73.1844 26.5919 72.9663C26.3982 72.7482 26.2707 72.4795 26.2243 72.1915C26.1779 71.9036 26.2145 71.6084 26.3297 71.3405C26.445 71.0726 26.6342 70.8431 26.8753 70.6789C27.1163 70.5147 27.3991 70.4225 27.6906 70.4132C27.9154 70.3958 28.1412 70.4297 28.3509 70.5124C28.5607 70.5951 28.7489 70.7245 28.9013 70.8906C29.0537 71.0567 29.1664 71.2554 29.2308 71.4715C29.2951 71.6875 29.3095 71.9154 29.2729 72.1379L29.2571 72.1775ZM15.6412 70.4923C15.6412 73.2851 19.7078 72.7866 19.7078 73.7993C19.7078 74.0762 19.3676 74.187 18.6951 74.187C17.6497 74.2013 16.6205 73.9276 15.7203 73.3958V75.5794C16.6827 76.0753 17.7555 76.3176 18.8375 76.2836C20.7917 76.2836 22.5322 75.7218 22.5322 73.7835C22.5322 70.9116 18.4657 71.5445 18.4657 70.4606C18.4657 70.1363 18.8691 70.073 19.2093 70.073C20.1712 70.0871 21.1114 70.3605 21.9309 70.8641V68.6884C21.0113 68.2534 20.0052 68.0316 18.9878 68.0397C17.2631 68.0397 15.6175 68.6252 15.6175 70.5081L15.6412 70.4923ZM6.69321 72.1379C6.69321 74.8041 8.74231 76.2519 11.2898 76.2519C12.2651 76.2747 13.237 76.1275 14.1617 75.8168V73.7835C13.4474 74.0442 12.691 74.1703 11.9307 74.1554C10.8231 74.1554 9.77082 73.8152 9.46226 72.9607H14.5336C15.0795 70.5872 14.0747 68.0239 10.7519 68.0239C10.2102 68.0093 9.67132 68.1062 9.16866 68.3086C8.666 68.5109 8.21026 68.8144 7.82972 69.2001C7.44917 69.5858 7.15193 70.0456 6.95643 70.551C6.76093 71.0564 6.67134 71.5965 6.69321 72.1379ZM12.0335 71.3467H9.43062C9.43022 71.1677 9.46664 70.9906 9.53762 70.8262C9.60859 70.6619 9.71261 70.5139 9.8432 70.3915C9.97379 70.2691 10.1282 70.1748 10.2967 70.1146C10.4653 70.0543 10.6445 70.0294 10.8231 70.0413C10.994 70.0272 11.1658 70.0521 11.3257 70.1142C11.4856 70.1762 11.6292 70.2738 11.7458 70.3996C11.8624 70.5253 11.9489 70.6759 11.9988 70.84C12.0486 71.0041 12.0605 71.1774 12.0335 71.3467ZM3.10926 69.3214V68.2691H0.688308V76.0146H3.43363V71.6078C3.75424 71.2201 4.18096 70.9342 4.66153 70.7853C5.14211 70.6363 5.65569 70.6307 6.1394 70.7692V68.1109C5.57155 68.0055 4.98545 68.0633 4.44911 68.2775C3.91277 68.4918 3.44818 68.8537 3.10926 69.3214ZM39.3523 46.718L43.2448 51.8288H57.6122V31.322L39.7478 15.1111L31.496 7.61886L23.2363 15.1111L5.38779 31.3299V51.8288H19.4704V26.1953H33.0072C37.0025 26.1953 41.2827 27.3662 43.7827 30.697C45.1042 32.509 45.7936 34.705 45.7448 36.9471C45.7861 38.9242 45.2566 40.8713 44.2196 42.5551C43.1827 44.2389 41.6823 45.5881 39.8982 46.441L39.3523 46.718ZM26.4247 32.2002V41.789H32.8173C34.8743 41.789 37.137 40.9979 38.2367 39.1782C38.6353 38.5026 38.8431 37.7315 38.838 36.9471C38.8433 36.2089 38.6522 35.4826 38.2842 34.8427C37.2003 32.9597 34.8822 32.2002 32.8173 32.2002H26.4247Z" fill="#50B89D"/>
</svg>
