<svg width="389" height="121" viewBox="0 0 389 121" fill="none" xmlns="http://www.w3.org/2000/svg">
<g filter="url(#filter0_d_3404_37)">
<rect x="22.8045" y="22.0566" width="343.963" height="75.9512" rx="37.9756" fill="url(#paint0_linear_3404_37)"/>
</g>
<rect x="22.8045" y="16.8164" width="344.354" height="77.5745" rx="38.7872" fill="url(#paint1_linear_3404_37)"/>
<mask id="mask0_3404_37" style="mask-type:alpha" maskUnits="userSpaceOnUse" x="22" y="16" width="346" height="82">
<rect x="22.8045" y="16.8164" width="344.354" height="81.0302" rx="40.5151" fill="url(#paint2_linear_3404_37)"/>
</mask>
<g mask="url(#mask0_3404_37)">
<g style="mix-blend-mode:color-burn" opacity="0.5">
<rect x="1.98779" y="6.89453" width="366.038" height="232.342"/>
</g>
</g>
<path d="M113.83 50.2752H117.634C119.367 50.2752 120.624 50.5233 121.404 51.0193C122.19 51.5098 122.583 52.2929 122.583 53.3686C122.583 54.0987 122.41 54.6979 122.065 55.166C121.725 55.6342 121.27 55.9157 120.702 56.0104V56.094C121.477 56.2668 122.034 56.5901 122.374 57.0638C122.72 57.5376 122.892 58.1674 122.892 58.9533C122.892 60.068 122.488 60.9375 121.68 61.5617C120.878 62.1859 119.785 62.498 118.403 62.498H113.83V50.2752ZM116.421 55.1159H117.926C118.629 55.1159 119.136 55.0072 119.448 54.7898C119.766 54.5725 119.924 54.213 119.924 53.7113C119.924 53.2432 119.752 52.9087 119.406 52.7081C119.066 52.5019 118.525 52.3988 117.784 52.3988H116.421V55.1159ZM116.421 57.1725V60.3578H118.11C118.824 60.3578 119.35 60.2213 119.69 59.9481C120.03 59.675 120.2 59.257 120.2 58.6941C120.2 57.6797 119.476 57.1725 118.027 57.1725H116.421ZM136.428 56.3699C136.428 58.3931 135.926 59.9481 134.923 61.035C133.92 62.1218 132.482 62.6653 130.609 62.6653C128.736 62.6653 127.298 62.1218 126.295 61.035C125.292 59.9481 124.79 58.3876 124.79 56.3532C124.79 54.3189 125.292 52.7666 126.295 51.6965C127.304 50.6208 128.747 50.083 130.626 50.083C132.504 50.083 133.939 50.6236 134.931 51.7049C135.929 52.7861 136.428 54.3412 136.428 56.3699ZM127.507 56.3699C127.507 57.7354 127.766 58.7638 128.285 59.4549C128.803 60.146 129.578 60.4916 130.609 60.4916C132.677 60.4916 133.711 59.1177 133.711 56.3699C133.711 53.6166 132.682 52.2399 130.626 52.2399C129.595 52.2399 128.817 52.5883 128.293 53.285C127.769 53.9761 127.507 55.0044 127.507 56.3699ZM138.961 50.2752H141.293V56.1776L141.26 57.7577L141.176 59.5552H141.227L146.87 50.2752H149.971V62.498H147.664V56.6291C147.664 55.8432 147.714 54.6784 147.814 53.1345H147.748L142.079 62.498H138.961V50.2752ZM148.517 46.3041C148.411 47.3463 148.018 48.1071 147.338 48.5865C146.658 49.0602 145.677 49.2971 144.395 49.2971C143.074 49.2971 142.096 49.0686 141.461 48.6115C140.831 48.1545 140.477 47.3854 140.399 46.3041H142.681C142.72 46.8782 142.862 47.2822 143.108 47.5163C143.358 47.7449 143.804 47.8591 144.445 47.8591C145.008 47.8591 145.426 47.7337 145.699 47.4829C145.978 47.2265 146.148 46.8336 146.209 46.3041H148.517ZM157.772 62.498H155.18V52.4322H151.861V50.2752H161.091V52.4322H157.772V62.498ZM162.972 50.2752H165.304V56.1776L165.271 57.7577L165.187 59.5552H165.237L170.881 50.2752H173.982V62.498H171.675V56.6291C171.675 55.8432 171.725 54.6784 171.825 53.1345H171.758L166.09 62.498H162.972V50.2752ZM181.515 50.2752H185.319C187.052 50.2752 188.309 50.5233 189.089 51.0193C189.875 51.5098 190.268 52.2929 190.268 53.3686C190.268 54.0987 190.095 54.6979 189.75 55.166C189.41 55.6342 188.956 55.9157 188.387 56.0104V56.094C189.162 56.2668 189.719 56.5901 190.059 57.0638C190.405 57.5376 190.578 58.1674 190.578 58.9533C190.578 60.068 190.173 60.9375 189.365 61.5617C188.563 62.1859 187.47 62.498 186.088 62.498H181.515V50.2752ZM184.107 55.1159H185.612C186.314 55.1159 186.821 55.0072 187.133 54.7898C187.451 54.5725 187.61 54.213 187.61 53.7113C187.61 53.2432 187.437 52.9087 187.091 52.7081C186.751 52.5019 186.211 52.3988 185.469 52.3988H184.107V55.1159ZM184.107 57.1725V60.3578H185.795C186.509 60.3578 187.036 60.2213 187.376 59.9481C187.716 59.675 187.886 59.257 187.886 58.6941C187.886 57.6797 187.161 57.1725 185.712 57.1725H184.107ZM207.432 62.498H204.489L200.058 56.303V62.498H197.466V50.2752H200.058V56.1944L204.439 50.2752H207.198L202.742 56.1442L207.432 62.498ZM220.064 56.3699C220.064 58.3931 219.563 59.9481 218.56 61.035C217.556 62.1218 216.118 62.6653 214.246 62.6653C212.373 62.6653 210.935 62.1218 209.932 61.035C208.928 59.9481 208.427 58.3876 208.427 56.3532C208.427 54.3189 208.928 52.7666 209.932 51.6965C210.941 50.6208 212.384 50.083 214.262 50.083C216.141 50.083 217.576 50.6236 218.568 51.7049C219.566 52.7861 220.064 54.3412 220.064 56.3699ZM211.144 56.3699C211.144 57.7354 211.403 58.7638 211.921 59.4549C212.44 60.146 213.215 60.4916 214.246 60.4916C216.313 60.4916 217.347 59.1177 217.347 56.3699C217.347 53.6166 216.319 52.2399 214.262 52.2399C213.231 52.2399 212.454 52.5883 211.93 53.285C211.406 53.9761 211.144 55.0044 211.144 56.3699ZM232.613 62.498H230.03V57.2227H225.189V62.498H222.598V50.2752H225.189V55.0657H230.03V50.2752H232.613V62.498ZM240.898 52.2566C239.923 52.2566 239.168 52.6245 238.633 53.3602C238.098 54.0903 237.83 55.1103 237.83 56.4201C237.83 59.1456 238.853 60.5083 240.898 60.5083C241.757 60.5083 242.796 60.2937 244.017 59.8645V62.0382C243.014 62.4562 241.893 62.6653 240.656 62.6653C238.878 62.6653 237.518 62.1274 236.576 61.0517C235.634 59.9704 235.163 58.421 235.163 56.4034C235.163 55.1326 235.395 54.0207 235.857 53.0676C236.32 52.1089 236.983 51.376 237.847 50.8688C238.716 50.3561 239.734 50.0997 240.898 50.0997C242.086 50.0997 243.278 50.3867 244.477 50.9608L243.641 53.0676C243.184 52.8502 242.724 52.6607 242.261 52.4991C241.799 52.3375 241.344 52.2566 240.898 52.2566ZM251.34 62.498H248.749V52.4322H245.43V50.2752H254.659V52.4322H251.34V62.498ZM259.132 56.0272H259.985C260.782 56.0272 261.378 55.8711 261.774 55.559C262.17 55.2413 262.368 54.7815 262.368 54.1795C262.368 53.572 262.201 53.1233 261.866 52.8335C261.537 52.5437 261.019 52.3988 260.311 52.3988H259.132V56.0272ZM264.984 54.0876C264.984 55.4029 264.572 56.4089 263.747 57.1056C262.928 57.8023 261.76 58.1507 260.244 58.1507H259.132V62.498H256.541V50.2752H260.445C261.927 50.2752 263.053 50.5957 263.822 51.2367C264.597 51.8721 264.984 52.8224 264.984 54.0876ZM276.931 50.2752L273.153 58.9198C272.679 60.0067 272.233 60.787 271.815 61.2607C271.402 61.7345 270.912 62.0884 270.343 62.3225C269.775 62.551 269.084 62.6653 268.27 62.6653C267.573 62.6653 266.924 62.5817 266.322 62.4144V60.1906C266.813 60.3912 267.423 60.4916 268.153 60.4916C268.616 60.4916 268.989 60.3857 269.273 60.1739C269.558 59.9565 269.794 59.5831 269.984 59.0536L265.754 50.2752H268.496L271.506 57.0889H271.589L271.74 56.6709L274.264 50.2752H276.931ZM288.444 62.498H285.501L281.07 56.303V62.498H278.478V50.2752H281.07V56.1944L285.451 50.2752H288.209L283.753 56.1442L288.444 62.498ZM294.697 62.498H292.105V52.4322H288.786V50.2752H298.016V52.4322H294.697V62.498ZM310.991 56.3699C310.991 58.3931 310.49 59.9481 309.487 61.035C308.483 62.1218 307.045 62.6653 305.173 62.6653C303.3 62.6653 301.862 62.1218 300.859 61.035C299.855 59.9481 299.354 58.3876 299.354 56.3532C299.354 54.3189 299.855 52.7666 300.859 51.6965C301.867 50.6208 303.311 50.083 305.189 50.083C307.068 50.083 308.503 50.6236 309.495 51.7049C310.493 52.7861 310.991 54.3412 310.991 56.3699ZM302.071 56.3699C302.071 57.7354 302.33 58.7638 302.848 59.4549C303.367 60.146 304.141 60.4916 305.173 60.4916C307.24 60.4916 308.274 59.1177 308.274 56.3699C308.274 53.6166 307.246 52.2399 305.189 52.2399C304.158 52.2399 303.381 52.5883 302.857 53.285C302.333 53.9761 302.071 55.0044 302.071 56.3699ZM316.116 56.0272H316.969C317.766 56.0272 318.362 55.8711 318.758 55.559C319.154 55.2413 319.352 54.7815 319.352 54.1795C319.352 53.572 319.185 53.1233 318.85 52.8335C318.521 52.5437 318.003 52.3988 317.295 52.3988H316.116V56.0272ZM321.969 54.0876C321.969 55.4029 321.556 56.4089 320.731 57.1056C319.912 57.8023 318.744 58.1507 317.228 58.1507H316.116V62.498H313.525V50.2752H317.429C318.911 50.2752 320.037 50.5957 320.806 51.2367C321.581 51.8721 321.969 52.8224 321.969 54.0876Z" fill="#FFFCEE"/>
<path d="M68.2199 49.9746L75.4955 53.8062" stroke="#F3F3F3" stroke-width="2"/>
<path d="M94.2929 49.9746L87.0173 53.8062" stroke="#F3F3F3" stroke-width="2"/>
<path d="M81.2444 63.8438L81.2303 71.3153" stroke="#F3F3F3" stroke-width="2"/>
<path d="M68.659 50.3036L81.1778 43.0758L93.6967 50.3036V64.7591L81.1778 71.9868L68.659 64.7591V50.3036Z" stroke="#F1F1F1" stroke-width="3"/>
<g filter="url(#filter1_d_3404_37)">
<circle cx="81.1778" cy="57.532" r="4.41479" fill="#F1F1F1"/>
</g>
<defs>
<filter id="filter0_d_3404_37" x="0.869556" y="0.852857" width="387.833" height="119.821" filterUnits="userSpaceOnUse" color-interpolation-filters="sRGB">
<feFlood flood-opacity="0" result="BackgroundImageFix"/>
<feColorMatrix in="SourceAlpha" type="matrix" values="0 0 0 0 0 0 0 0 0 0 0 0 0 0 0 0 0 0 127 0" result="hardAlpha"/>
<feMorphology radius="3.65582" operator="dilate" in="SourceAlpha" result="effect1_dropShadow_3404_37"/>
<feOffset dy="0.731165"/>
<feGaussianBlur stdDeviation="9.13956"/>
<feColorMatrix type="matrix" values="0 0 0 0 1 0 0 0 0 0.952928 0 0 0 0 0.8625 0 0 0 0.24 0"/>
<feBlend mode="normal" in2="BackgroundImageFix" result="effect1_dropShadow_3404_37"/>
<feBlend mode="normal" in="SourceGraphic" in2="effect1_dropShadow_3404_37" result="shape"/>
</filter>
<filter id="filter1_d_3404_37" x="73.7631" y="53.1172" width="14.8296" height="14.8301" filterUnits="userSpaceOnUse" color-interpolation-filters="sRGB">
<feFlood flood-opacity="0" result="BackgroundImageFix"/>
<feColorMatrix in="SourceAlpha" type="matrix" values="0 0 0 0 0 0 0 0 0 0 0 0 0 0 0 0 0 0 127 0" result="hardAlpha"/>
<feOffset dy="3"/>
<feGaussianBlur stdDeviation="1.5"/>
<feComposite in2="hardAlpha" operator="out"/>
<feColorMatrix type="matrix" values="0 0 0 0 0.166939 0 0 0 0 0.102237 0 0 0 0 0.00518517 0 0 0 0.16 0"/>
<feBlend mode="normal" in2="BackgroundImageFix" result="effect1_dropShadow_3404_37"/>
<feBlend mode="normal" in="SourceGraphic" in2="effect1_dropShadow_3404_37" result="shape"/>
</filter>
<linearGradient id="paint0_linear_3404_37" x1="194.786" y1="22.0566" x2="194.786" y2="98.0079" gradientUnits="userSpaceOnUse">
<stop offset="0.796875" stop-color="#AF7B16"/>
<stop offset="1" stop-color="#BB9141"/>
</linearGradient>
<linearGradient id="paint1_linear_3404_37" x1="194.981" y1="16.8164" x2="194.981" y2="94.3909" gradientUnits="userSpaceOnUse">
<stop stop-color="#F5D89F"/>
<stop offset="1" stop-color="#DDB15C"/>
</linearGradient>
<linearGradient id="paint2_linear_3404_37" x1="194.981" y1="16.8164" x2="194.981" y2="97.8466" gradientUnits="userSpaceOnUse">
<stop stop-color="#F5D89F"/>
<stop offset="1" stop-color="#DDB15C"/>
</linearGradient>
</defs>
</svg>
